<?xml version="1.0" encoding="utf-8" standalone="no"?>
<!DOCTYPE svg PUBLIC "-//W3C//DTD SVG 1.1//EN"
  "http://www.w3.org/Graphics/SVG/1.1/DTD/svg11.dtd">
<!-- Created with matplotlib (http://matplotlib.org/) -->
<svg height="345.6pt" version="1.1" viewBox="0 0 460.8 345.6" width="460.8pt" xmlns="http://www.w3.org/2000/svg" xmlns:xlink="http://www.w3.org/1999/xlink">
 <defs>
  <style type="text/css">
*{stroke-linecap:butt;stroke-linejoin:round;}
  </style>
 </defs>
 <g id="figure_1">
  <g id="patch_1">
   <path d="M 0 345.6 
L 460.8 345.6 
L 460.8 0 
L 0 0 
z
" style="fill:#ffffff;"/>
  </g>
  <g id="axes_1">
   <g id="patch_2">
    <path d="M 57.6 307.584 
L 414.72 307.584 
L 414.72 41.472 
L 57.6 41.472 
z
" style="fill:#ffffff;"/>
   </g>
   <g id="matplotlib.axis_1">
    <g id="xtick_1">
     <g id="line2d_1">
      <defs>
       <path d="M 0 0 
L 0 3.5 
" id="m889288290d" style="stroke:#000000;stroke-width:0.8;"/>
      </defs>
      <g>
       <use style="stroke:#000000;stroke-width:0.8;" x="62.755597" xlink:href="#m889288290d" y="307.584"/>
      </g>
     </g>
     <g id="text_1">
      <!-- 0 -->
      <defs>
       <path d="M 31.78125 66.40625 
Q 24.171875 66.40625 20.328125 58.90625 
Q 16.5 51.421875 16.5 36.375 
Q 16.5 21.390625 20.328125 13.890625 
Q 24.171875 6.390625 31.78125 6.390625 
Q 39.453125 6.390625 43.28125 13.890625 
Q 47.125 21.390625 47.125 36.375 
Q 47.125 51.421875 43.28125 58.90625 
Q 39.453125 66.40625 31.78125 66.40625 
z
M 31.78125 74.21875 
Q 44.046875 74.21875 50.515625 64.515625 
Q 56.984375 54.828125 56.984375 36.375 
Q 56.984375 17.96875 50.515625 8.265625 
Q 44.046875 -1.421875 31.78125 -1.421875 
Q 19.53125 -1.421875 13.0625 8.265625 
Q 6.59375 17.96875 6.59375 36.375 
Q 6.59375 54.828125 13.0625 64.515625 
Q 19.53125 74.21875 31.78125 74.21875 
z
" id="DejaVuSans-30"/>
      </defs>
      <g transform="translate(59.574347 322.182437)scale(0.1 -0.1)">
       <use xlink:href="#DejaVuSans-30"/>
      </g>
     </g>
    </g>
    <g id="xtick_2">
     <g id="line2d_2">
      <g>
       <use style="stroke:#000000;stroke-width:0.8;" x="110.203641" xlink:href="#m889288290d" y="307.584"/>
      </g>
     </g>
     <g id="text_2">
      <!-- 50 -->
      <defs>
       <path d="M 10.796875 72.90625 
L 49.515625 72.90625 
L 49.515625 64.59375 
L 19.828125 64.59375 
L 19.828125 46.734375 
Q 21.96875 47.46875 24.109375 47.828125 
Q 26.265625 48.1875 28.421875 48.1875 
Q 40.625 48.1875 47.75 41.5 
Q 54.890625 34.8125 54.890625 23.390625 
Q 54.890625 11.625 47.5625 5.09375 
Q 40.234375 -1.421875 26.90625 -1.421875 
Q 22.3125 -1.421875 17.546875 -0.640625 
Q 12.796875 0.140625 7.71875 1.703125 
L 7.71875 11.625 
Q 12.109375 9.234375 16.796875 8.0625 
Q 21.484375 6.890625 26.703125 6.890625 
Q 35.15625 6.890625 40.078125 11.328125 
Q 45.015625 15.765625 45.015625 23.390625 
Q 45.015625 31 40.078125 35.4375 
Q 35.15625 39.890625 26.703125 39.890625 
Q 22.75 39.890625 18.8125 39.015625 
Q 14.890625 38.140625 10.796875 36.28125 
z
" id="DejaVuSans-35"/>
      </defs>
      <g transform="translate(103.841141 322.182437)scale(0.1 -0.1)">
       <use xlink:href="#DejaVuSans-35"/>
       <use x="63.623047" xlink:href="#DejaVuSans-30"/>
      </g>
     </g>
    </g>
    <g id="xtick_3">
     <g id="line2d_3">
      <g>
       <use style="stroke:#000000;stroke-width:0.8;" x="157.651685" xlink:href="#m889288290d" y="307.584"/>
      </g>
     </g>
     <g id="text_3">
      <!-- 100 -->
      <defs>
       <path d="M 12.40625 8.296875 
L 28.515625 8.296875 
L 28.515625 63.921875 
L 10.984375 60.40625 
L 10.984375 69.390625 
L 28.421875 72.90625 
L 38.28125 72.90625 
L 38.28125 8.296875 
L 54.390625 8.296875 
L 54.390625 0 
L 12.40625 0 
z
" id="DejaVuSans-31"/>
      </defs>
      <g transform="translate(148.107935 322.182437)scale(0.1 -0.1)">
       <use xlink:href="#DejaVuSans-31"/>
       <use x="63.623047" xlink:href="#DejaVuSans-30"/>
       <use x="127.246094" xlink:href="#DejaVuSans-30"/>
      </g>
     </g>
    </g>
    <g id="xtick_4">
     <g id="line2d_4">
      <g>
       <use style="stroke:#000000;stroke-width:0.8;" x="205.099729" xlink:href="#m889288290d" y="307.584"/>
      </g>
     </g>
     <g id="text_4">
      <!-- 150 -->
      <g transform="translate(195.555979 322.182437)scale(0.1 -0.1)">
       <use xlink:href="#DejaVuSans-31"/>
       <use x="63.623047" xlink:href="#DejaVuSans-35"/>
       <use x="127.246094" xlink:href="#DejaVuSans-30"/>
      </g>
     </g>
    </g>
    <g id="xtick_5">
     <g id="line2d_5">
      <g>
       <use style="stroke:#000000;stroke-width:0.8;" x="252.547773" xlink:href="#m889288290d" y="307.584"/>
      </g>
     </g>
     <g id="text_5">
      <!-- 200 -->
      <defs>
       <path d="M 19.1875 8.296875 
L 53.609375 8.296875 
L 53.609375 0 
L 7.328125 0 
L 7.328125 8.296875 
Q 12.9375 14.109375 22.625 23.890625 
Q 32.328125 33.6875 34.8125 36.53125 
Q 39.546875 41.84375 41.421875 45.53125 
Q 43.3125 49.21875 43.3125 52.78125 
Q 43.3125 58.59375 39.234375 62.25 
Q 35.15625 65.921875 28.609375 65.921875 
Q 23.96875 65.921875 18.8125 64.3125 
Q 13.671875 62.703125 7.8125 59.421875 
L 7.8125 69.390625 
Q 13.765625 71.78125 18.9375 73 
Q 24.125 74.21875 28.421875 74.21875 
Q 39.75 74.21875 46.484375 68.546875 
Q 53.21875 62.890625 53.21875 53.421875 
Q 53.21875 48.921875 51.53125 44.890625 
Q 49.859375 40.875 45.40625 35.40625 
Q 44.1875 33.984375 37.640625 27.21875 
Q 31.109375 20.453125 19.1875 8.296875 
z
" id="DejaVuSans-32"/>
      </defs>
      <g transform="translate(243.004023 322.182437)scale(0.1 -0.1)">
       <use xlink:href="#DejaVuSans-32"/>
       <use x="63.623047" xlink:href="#DejaVuSans-30"/>
       <use x="127.246094" xlink:href="#DejaVuSans-30"/>
      </g>
     </g>
    </g>
    <g id="xtick_6">
     <g id="line2d_6">
      <g>
       <use style="stroke:#000000;stroke-width:0.8;" x="299.995817" xlink:href="#m889288290d" y="307.584"/>
      </g>
     </g>
     <g id="text_6">
      <!-- 250 -->
      <g transform="translate(290.452067 322.182437)scale(0.1 -0.1)">
       <use xlink:href="#DejaVuSans-32"/>
       <use x="63.623047" xlink:href="#DejaVuSans-35"/>
       <use x="127.246094" xlink:href="#DejaVuSans-30"/>
      </g>
     </g>
    </g>
    <g id="xtick_7">
     <g id="line2d_7">
      <g>
       <use style="stroke:#000000;stroke-width:0.8;" x="347.44386" xlink:href="#m889288290d" y="307.584"/>
      </g>
     </g>
     <g id="text_7">
      <!-- 300 -->
      <defs>
       <path d="M 40.578125 39.3125 
Q 47.65625 37.796875 51.625 33 
Q 55.609375 28.21875 55.609375 21.1875 
Q 55.609375 10.40625 48.1875 4.484375 
Q 40.765625 -1.421875 27.09375 -1.421875 
Q 22.515625 -1.421875 17.65625 -0.515625 
Q 12.796875 0.390625 7.625 2.203125 
L 7.625 11.71875 
Q 11.71875 9.328125 16.59375 8.109375 
Q 21.484375 6.890625 26.8125 6.890625 
Q 36.078125 6.890625 40.9375 10.546875 
Q 45.796875 14.203125 45.796875 21.1875 
Q 45.796875 27.640625 41.28125 31.265625 
Q 36.765625 34.90625 28.71875 34.90625 
L 20.21875 34.90625 
L 20.21875 43.015625 
L 29.109375 43.015625 
Q 36.375 43.015625 40.234375 45.921875 
Q 44.09375 48.828125 44.09375 54.296875 
Q 44.09375 59.90625 40.109375 62.90625 
Q 36.140625 65.921875 28.71875 65.921875 
Q 24.65625 65.921875 20.015625 65.03125 
Q 15.375 64.15625 9.8125 62.3125 
L 9.8125 71.09375 
Q 15.4375 72.65625 20.34375 73.4375 
Q 25.25 74.21875 29.59375 74.21875 
Q 40.828125 74.21875 47.359375 69.109375 
Q 53.90625 64.015625 53.90625 55.328125 
Q 53.90625 49.265625 50.4375 45.09375 
Q 46.96875 40.921875 40.578125 39.3125 
z
" id="DejaVuSans-33"/>
      </defs>
      <g transform="translate(337.90011 322.182437)scale(0.1 -0.1)">
       <use xlink:href="#DejaVuSans-33"/>
       <use x="63.623047" xlink:href="#DejaVuSans-30"/>
       <use x="127.246094" xlink:href="#DejaVuSans-30"/>
      </g>
     </g>
    </g>
    <g id="xtick_8">
     <g id="line2d_8">
      <g>
       <use style="stroke:#000000;stroke-width:0.8;" x="394.891904" xlink:href="#m889288290d" y="307.584"/>
      </g>
     </g>
     <g id="text_8">
      <!-- 350 -->
      <g transform="translate(385.348154 322.182437)scale(0.1 -0.1)">
       <use xlink:href="#DejaVuSans-33"/>
       <use x="63.623047" xlink:href="#DejaVuSans-35"/>
       <use x="127.246094" xlink:href="#DejaVuSans-30"/>
      </g>
     </g>
    </g>
   </g>
   <g id="matplotlib.axis_2">
    <g id="ytick_1">
     <g id="line2d_9">
      <defs>
       <path d="M 0 0 
L -3.5 0 
" id="m07dc92fef3" style="stroke:#000000;stroke-width:0.8;"/>
      </defs>
      <g>
       <use style="stroke:#000000;stroke-width:0.8;" x="57.6" xlink:href="#m07dc92fef3" y="302.844638"/>
      </g>
     </g>
     <g id="text_9">
      <!-- 0 -->
      <g transform="translate(44.2375 306.643857)scale(0.1 -0.1)">
       <use xlink:href="#DejaVuSans-30"/>
      </g>
     </g>
    </g>
    <g id="ytick_2">
     <g id="line2d_10">
      <g>
       <use style="stroke:#000000;stroke-width:0.8;" x="57.6" xlink:href="#m07dc92fef3" y="272.347513"/>
      </g>
     </g>
     <g id="text_10">
      <!-- 250 -->
      <g transform="translate(31.5125 276.146732)scale(0.1 -0.1)">
       <use xlink:href="#DejaVuSans-32"/>
       <use x="63.623047" xlink:href="#DejaVuSans-35"/>
       <use x="127.246094" xlink:href="#DejaVuSans-30"/>
      </g>
     </g>
    </g>
    <g id="ytick_3">
     <g id="line2d_11">
      <g>
       <use style="stroke:#000000;stroke-width:0.8;" x="57.6" xlink:href="#m07dc92fef3" y="241.850389"/>
      </g>
     </g>
     <g id="text_11">
      <!-- 500 -->
      <g transform="translate(31.5125 245.649608)scale(0.1 -0.1)">
       <use xlink:href="#DejaVuSans-35"/>
       <use x="63.623047" xlink:href="#DejaVuSans-30"/>
       <use x="127.246094" xlink:href="#DejaVuSans-30"/>
      </g>
     </g>
    </g>
    <g id="ytick_4">
     <g id="line2d_12">
      <g>
       <use style="stroke:#000000;stroke-width:0.8;" x="57.6" xlink:href="#m07dc92fef3" y="211.353265"/>
      </g>
     </g>
     <g id="text_12">
      <!-- 750 -->
      <defs>
       <path d="M 8.203125 72.90625 
L 55.078125 72.90625 
L 55.078125 68.703125 
L 28.609375 0 
L 18.3125 0 
L 43.21875 64.59375 
L 8.203125 64.59375 
z
" id="DejaVuSans-37"/>
      </defs>
      <g transform="translate(31.5125 215.152483)scale(0.1 -0.1)">
       <use xlink:href="#DejaVuSans-37"/>
       <use x="63.623047" xlink:href="#DejaVuSans-35"/>
       <use x="127.246094" xlink:href="#DejaVuSans-30"/>
      </g>
     </g>
    </g>
    <g id="ytick_5">
     <g id="line2d_13">
      <g>
       <use style="stroke:#000000;stroke-width:0.8;" x="57.6" xlink:href="#m07dc92fef3" y="180.85614"/>
      </g>
     </g>
     <g id="text_13">
      <!-- 1000 -->
      <g transform="translate(25.15 184.655359)scale(0.1 -0.1)">
       <use xlink:href="#DejaVuSans-31"/>
       <use x="63.623047" xlink:href="#DejaVuSans-30"/>
       <use x="127.246094" xlink:href="#DejaVuSans-30"/>
       <use x="190.869141" xlink:href="#DejaVuSans-30"/>
      </g>
     </g>
    </g>
    <g id="ytick_6">
     <g id="line2d_14">
      <g>
       <use style="stroke:#000000;stroke-width:0.8;" x="57.6" xlink:href="#m07dc92fef3" y="150.359016"/>
      </g>
     </g>
     <g id="text_14">
      <!-- 1250 -->
      <g transform="translate(25.15 154.158234)scale(0.1 -0.1)">
       <use xlink:href="#DejaVuSans-31"/>
       <use x="63.623047" xlink:href="#DejaVuSans-32"/>
       <use x="127.246094" xlink:href="#DejaVuSans-35"/>
       <use x="190.869141" xlink:href="#DejaVuSans-30"/>
      </g>
     </g>
    </g>
    <g id="ytick_7">
     <g id="line2d_15">
      <g>
       <use style="stroke:#000000;stroke-width:0.8;" x="57.6" xlink:href="#m07dc92fef3" y="119.861891"/>
      </g>
     </g>
     <g id="text_15">
      <!-- 1500 -->
      <g transform="translate(25.15 123.66111)scale(0.1 -0.1)">
       <use xlink:href="#DejaVuSans-31"/>
       <use x="63.623047" xlink:href="#DejaVuSans-35"/>
       <use x="127.246094" xlink:href="#DejaVuSans-30"/>
       <use x="190.869141" xlink:href="#DejaVuSans-30"/>
      </g>
     </g>
    </g>
    <g id="ytick_8">
     <g id="line2d_16">
      <g>
       <use style="stroke:#000000;stroke-width:0.8;" x="57.6" xlink:href="#m07dc92fef3" y="89.364767"/>
      </g>
     </g>
     <g id="text_16">
      <!-- 1750 -->
      <g transform="translate(25.15 93.163986)scale(0.1 -0.1)">
       <use xlink:href="#DejaVuSans-31"/>
       <use x="63.623047" xlink:href="#DejaVuSans-37"/>
       <use x="127.246094" xlink:href="#DejaVuSans-35"/>
       <use x="190.869141" xlink:href="#DejaVuSans-30"/>
      </g>
     </g>
    </g>
    <g id="ytick_9">
     <g id="line2d_17">
      <g>
       <use style="stroke:#000000;stroke-width:0.8;" x="57.6" xlink:href="#m07dc92fef3" y="58.867642"/>
      </g>
     </g>
     <g id="text_17">
      <!-- 2000 -->
      <g transform="translate(25.15 62.666861)scale(0.1 -0.1)">
       <use xlink:href="#DejaVuSans-32"/>
       <use x="63.623047" xlink:href="#DejaVuSans-30"/>
       <use x="127.246094" xlink:href="#DejaVuSans-30"/>
       <use x="190.869141" xlink:href="#DejaVuSans-30"/>
      </g>
     </g>
    </g>
   </g>
   <g id="line2d_18">
    <path clip-path="url(#p578605c049)" d="M 62.755597 302.600661 
L 63.704558 302.600661 
L 64.653519 302.356684 
L 65.60248 302.234695 
L 66.551441 302.600661 
L 69.398324 302.234695 
L 70.347284 302.234695 
L 72.245206 301.990718 
L 75.092089 301.990718 
L 76.04105 301.86873 
L 80.785854 301.86873 
L 81.734815 300.038902 
L 82.683776 291.499708 
L 83.632737 286.742156 
L 84.581698 291.255731 
L 85.530659 292.353627 
L 86.479619 267.102008 
L 87.42858 192.689024 
L 88.377541 142.429763 
L 89.326502 141.08789 
L 90.275463 157.678326 
L 91.224424 177.074497 
L 92.173385 194.152886 
L 94.071306 57.891734 
L 95.020267 44.716977 
L 95.969228 63.747182 
L 98.816111 136.818292 
L 99.765072 114.25042 
L 100.714033 74.238193 
L 101.662993 89.12079 
L 105.458837 186.467611 
L 106.407798 191.347151 
L 107.356759 188.053461 
L 108.30572 209.27946 
L 111.152602 279.788812 
L 112.101563 291.865673 
L 113.050524 290.645788 
L 113.999485 296.745213 
L 114.948446 298.575041 
L 116.846367 300.160891 
L 117.795328 293.085558 
L 118.744289 289.181926 
L 119.69325 295.281351 
L 120.642211 297.965098 
L 121.591172 299.184983 
L 122.540133 300.160891 
L 123.489094 298.087087 
L 124.438054 274.177341 
L 125.387015 288.08403 
L 126.335976 295.281351 
L 127.284937 298.087087 
L 128.233898 299.184983 
L 129.182859 299.794925 
L 130.13182 278.812904 
L 131.080781 280.154777 
L 132.029741 292.96357 
L 132.978702 296.867202 
L 133.927663 298.697029 
L 134.876624 299.672937 
L 135.825585 297.355156 
L 136.774546 278.812904 
L 137.723507 290.889765 
L 138.672468 296.135271 
L 139.621428 298.331064 
L 140.570389 299.42896 
L 141.51935 299.794925 
L 142.468311 285.034317 
L 143.417272 298.697029 
L 144.366233 292.719593 
L 146.264155 298.087087 
L 147.213115 299.550949 
L 148.162076 300.404868 
L 149.111037 300.526856 
L 150.059998 295.525328 
L 151.008959 295.647317 
L 151.95792 298.209075 
L 153.855842 300.282879 
L 154.804802 300.770833 
L 155.753763 298.819018 
L 156.702724 295.891294 
L 157.651685 298.209075 
L 159.549607 300.282879 
L 160.498568 300.770833 
L 161.447529 300.770833 
L 162.39649 297.111179 
L 165.243372 300.282879 
L 167.141294 301.136799 
L 168.090255 299.672937 
L 169.039216 301.502764 
L 169.988177 301.86873 
L 170.937137 301.86873 
L 172.835059 302.112707 
L 174.732981 301.86873 
L 189.916355 301.86873 
L 190.865316 301.990718 
L 191.814277 302.600661 
L 192.763238 302.356684 
L 193.712198 302.234695 
L 194.661159 301.990718 
L 195.61012 301.990718 
L 196.559081 301.86873 
L 197.508042 301.990718 
L 198.457003 301.86873 
L 210.793494 301.86873 
L 211.742455 301.746741 
L 212.691416 295.891294 
L 213.640377 199.276403 
L 217.43622 292.475616 
L 218.385181 150.602993 
L 219.334142 142.551752 
L 220.283103 167.315417 
L 221.232064 217.330701 
L 223.129986 264.662238 
L 224.078946 202.81407 
L 225.027907 104.247363 
L 225.976868 127.059213 
L 226.925829 171.219049 
L 227.87479 225.50393 
L 228.823751 261.368549 
L 229.772712 191.713116 
L 230.721673 86.071077 
L 231.670633 122.667627 
L 232.619594 209.889403 
L 234.517516 258.562813 
L 235.466477 179.636255 
L 236.415438 146.333395 
L 237.364399 233.433183 
L 238.31336 256.976963 
L 239.26232 66.674906 
L 240.211281 73.018308 
L 241.160242 98.391916 
L 242.109203 209.523437 
L 243.058164 235.384999 
L 244.007125 257.586905 
L 244.956086 144.381579 
L 245.905047 61.063435 
L 246.854008 86.193066 
L 247.802968 164.997635 
L 248.751929 224.284045 
L 249.70089 247.705837 
L 250.649851 214.402977 
L 251.598812 57.281792 
L 252.547773 225.137965 
L 253.496734 254.293216 
L 254.445695 167.925359 
L 255.394655 68.504734 
L 256.343616 90.828629 
L 257.292577 130.230914 
L 258.241538 217.330701 
L 259.190499 240.508516 
L 260.13946 260.636618 
L 261.088421 112.66457 
L 262.037382 76.677963 
L 262.986342 100.831686 
L 263.935303 189.151358 
L 264.884264 231.969321 
L 265.833225 254.293216 
L 266.782186 206.473725 
L 267.731147 75.580067 
L 268.680108 100.709697 
L 269.629069 144.259591 
L 270.578029 220.136436 
L 271.52699 242.704309 
L 272.475951 262.588434 
L 273.424912 103.271456 
L 274.373873 93.756353 
L 275.322834 209.035483 
L 277.220756 255.635089 
L 278.169716 213.915023 
L 279.118677 98.87987 
L 280.067638 121.447742 
L 281.016599 184.881761 
L 281.96556 226.967792 
L 282.914521 255.269124 
L 283.863482 238.190734 
L 284.812443 101.197651 
L 285.761403 118.154052 
L 286.710364 150.724981 
L 287.659325 220.990356 
L 289.557247 265.516158 
L 290.506208 141.819821 
L 291.455169 120.959788 
L 292.40413 144.503568 
L 293.35309 209.157472 
L 294.302051 239.654596 
L 295.251012 262.466445 
L 296.199973 226.479838 
L 297.148934 129.620971 
L 298.097895 155.360544 
L 299.046856 200.008334 
L 299.995817 230.627447 
L 301.893738 276.617111 
L 302.842699 150.237027 
L 303.79166 156.946395 
L 304.740621 180.612163 
L 305.689582 239.044654 
L 306.638543 261.124572 
L 307.587504 279.544835 
L 308.536464 171.463026 
L 311.383347 240.752493 
L 312.332308 269.785755 
L 313.281269 285.156306 
L 314.23023 183.051933 
L 315.179191 201.838162 
L 316.128151 227.455746 
L 318.026073 271.981548 
L 318.975034 289.547892 
L 319.923995 215.988827 
L 320.872956 213.793035 
L 322.770878 258.562813 
L 323.719838 285.156306 
L 324.668799 294.305443 
L 325.61776 290.645788 
L 326.566721 234.165114 
L 328.464643 279.422846 
L 329.413604 292.475616 
L 330.362565 296.623225 
L 331.311526 298.087087 
L 332.260486 253.92725 
L 333.209447 269.053824 
L 334.158408 288.206018 
L 335.107369 296.745213 
L 336.05633 298.697029 
L 337.005291 299.306972 
L 337.954252 282.106593 
L 338.903213 293.207547 
L 339.852173 296.98919 
L 340.801134 298.697029 
L 341.750095 300.038902 
L 342.699056 299.42896 
L 343.648017 294.427432 
L 344.596978 297.233167 
L 345.545939 298.819018 
L 347.44386 300.404868 
L 348.392821 300.892822 
L 349.341782 298.697029 
L 350.290743 298.941006 
L 352.188665 300.404868 
L 354.086587 301.136799 
L 355.035547 301.258787 
L 355.984508 301.258787 
L 356.933469 301.380776 
L 357.88243 301.380776 
L 359.780352 301.624753 
L 360.729313 301.624753 
L 361.678274 301.746741 
L 362.627234 301.746741 
L 363.576195 301.624753 
L 364.525156 301.624753 
L 365.474117 301.746741 
L 366.423078 301.746741 
L 367.372039 301.86873 
L 368.321 301.86873 
L 369.269961 301.746741 
L 372.116843 301.746741 
L 373.065804 301.86873 
L 374.014765 301.746741 
L 384.453335 301.746741 
L 385.402295 301.86873 
L 386.351256 301.86873 
L 387.300217 301.746741 
L 392.993982 301.746741 
L 393.942943 302.234695 
L 397.738787 301.746741 
L 398.687748 301.86873 
L 400.585669 301.86873 
L 401.53463 301.746741 
L 414.820083 301.746741 
L 414.820083 301.746741 
" style="fill:none;stroke:#1f77b4;stroke-linecap:square;stroke-width:1.5;"/>
   </g>
   <g id="patch_3">
    <path d="M 57.6 307.584 
L 57.6 41.472 
" style="fill:none;stroke:#000000;stroke-linecap:square;stroke-linejoin:miter;stroke-width:0.8;"/>
   </g>
   <g id="patch_4">
    <path d="M 414.72 307.584 
L 414.72 41.472 
" style="fill:none;stroke:#000000;stroke-linecap:square;stroke-linejoin:miter;stroke-width:0.8;"/>
   </g>
   <g id="patch_5">
    <path d="M 57.6 307.584 
L 414.72 307.584 
" style="fill:none;stroke:#000000;stroke-linecap:square;stroke-linejoin:miter;stroke-width:0.8;"/>
   </g>
   <g id="patch_6">
    <path d="M 57.6 41.472 
L 414.72 41.472 
" style="fill:none;stroke:#000000;stroke-linecap:square;stroke-linejoin:miter;stroke-width:0.8;"/>
   </g>
  </g>
 </g>
 <defs>
  <clipPath id="p578605c049">
   <rect height="266.112" width="357.12" x="57.6" y="41.472"/>
  </clipPath>
 </defs>
</svg>
